<svg xmlns="http://www.w3.org/2000/svg" viewBox="0 0 24 24" fill="#444">
<path d="M12 .5C5.65.5.5 5.65.5 12c0 5.09 3.29 9.39 7.86 10.91.58.11.79-.25.79-.55v-1.87c-3.2.7-3.87-1.43-3.87-1.43-.53-1.34-1.3-1.7-1.3-1.7-1.06-.73.08-.72.08-.72 1.18.08 1.81 1.22 1.81 1.22 1.04 1.78 2.74 1.26 3.41.96.11-.76.41-1.26.75-1.55-2.55-.29-5.23-1.27-5.23-5.66 0-1.25.45-2.28 1.19-3.09-.12-.29-.51-1.45.11-3.03 0 0 .96-.31 3.15 1.19a10.7 10.7 0 0 1 2.86-.38c.97 0 1.95.13 2.86.38 2.19-1.5 3.15-1.19 3.15-1.19.63 1.58.23 2.74.11 3.03.74.81 1.19 1.84 1.19 3.09 0 4.41-2.69 5.37-5.25 5.66.42.36.8 1.08.8 2.19v3.03c0 .31.21.67.8.55C20.21 21.39 23.5 17.09 23.5 12c0-6.35-5.15-11.5-11.5-11.5z"></path>
</svg>
